# AST/ASF file generated using VICON BodyLanguage
# -----------------------------------------------
:version 1.10
:name VICON
:units
  mass 1.0
  length 0.45
  angle deg
:documentation
   .ast/.asf automatically generated from VICON data using
   VICON BodyBuilder and BodyLanguage model FoxedUp or BRILLIANT.MOD
:root
   order TX TY TZ RX RY RZ
   axis XYZ
   position 0 0 0  
   orientation 0 0 0 
:bonedata
  begin
     id 1 
     name lhipjoint
     direction 0.521452 -0.77106 0.36545 
     length 2.0933 
     axis 0 0 0  XYZ
  end
  begin
     id 2 
     name lfemur
     direction 0.34202 -0.939693 0  
     length 6.83441  
     axis 0 0 20  XYZ
    dof rx ry rz
    limits (-160.0 20.0)
           (-70.0 70.0)
           (-60.0 70.0)
  end
  begin
     id 3 
     name ltibia
     direction 0.34202 -0.939693 0   
     length 7.28749   
     axis 0 0 20   XYZ
    dof rx
    limits (-10.0 170.0)
  end
  begin
     id 4 
     name lfoot
     direction 0.100608 -0.276418 0.955757   
     length 1.52195   
     axis -90 7.62852e-016 20   XYZ
    dof rx rz
    limits (-45.0 90.0)
           (-70.0 20.0)
  end
  begin
     id 5 
     name ltoes
     direction 1.53558e-011 -4.21907e-011 1   
     length 0.770459   
     axis -90 7.62852e-016 20   XYZ
    dof rx
    limits (-90.0 20.0)
  end
  begin
     id 6 
     name rhipjoint
     direction -0.488071 -0.788702 0.373812   
     length 2.04648  
     axis 0 0 0  XYZ 
  end
  begin
     id 7 
     name rfemur
     direction -0.34202 -0.939693 0   
     length 6.92583   
     axis 0 0 -20   XYZ
    dof rx ry rz
    limits (-160.0 20.0)
           (-70.0 70.0)
           (-70.0 60.0)
  end
  begin
     id 8 
     name rtibia
     direction -0.34202 -0.939693 0   
     length 7.41043   
     axis 0 0 -20   XYZ
    dof rx
    limits (-10.0 170.0)
 end
 begin
     id 9 
     name rfoot
     direction -0.0784433 -0.215521 0.973343   
     length 1.67708  
     axis -90 -7.62852e-016 -20   XYZ
    dof rx rz
    limits (-45.0 90.0)
           (-20.0 70.0)
  end
  begin
     id 10 
     name rtoes
     direction -1.53551e-011 -4.21842e-011 1   
     length 0.849787   
     axis -90 -7.62852e-016 -20   XYZ
    dof rx
    limits (-90.0 20.0)
  end
  begin
     id 11 
     name lowerback
     direction -0.0122332 0.997575 -0.0685192   
     length 1.98724   
     axis 0 0 0   XYZ
    dof rx ry rz
    limits (-20.0 45.0)
           (-30.0 30.0)
           (-30.0 30.0)
  end
  begin
     id 12 
     name upperback
     direction 0.0182347 0.999724 -0.0148421   
     length 1.99029   
     axis 0 0 0   XYZ
    dof rx ry rz
    limits (-20.0 45.0)
           (-30.0 30.0)
           (-30.0 30.0)
  end
  begin
     id 13 
     name thorax
     direction 0.0242908 0.99956 0.0170184   
     length 1.99573   
     axis 0 0 0   XYZ
    dof rx ry rz
    limits (-20.0 45.0)
           (-30.0 30.0)
           (-30.0 30.0)
  end
  begin
     id 14 
     name lowerneck
     direction 0.0654488 0.985533 0.156338   
     length 1.4285   
     axis 0 0 0   XYZ
    dof rx ry rz
    limits (-20.0 45.0)
           (-30.0 30.0)
           (-30.0 30.0)
  end
  begin
     id 15 
     name upperneck
     direction -0.02953 0.998556 -0.0448842   
     length 1.44709   
     axis 0 0 0   XYZ
    dof rx ry rz
    limits (-20.0 45.0)
           (-30.0 30.0)
           (-30.0 30.0)
  end
  begin
     id 16
     name head
     direction -0.0155588 0.999386 -0.0314063  
     length 1.44689  
     axis 0 0 0   XYZ
    dof rx ry rz
    limits (-20.0 45.0)
           (-30.0 30.0)
           (-30.0 30.0)
  end
  begin
     id 17 
     name lclavicle
     direction 0.968229 0.236071 -0.0824755  
     length 3.60593  
     axis 0 0 0   XYZ
    dof ry rz
    limits (-20.0 10.0)
           (0.0 20.0)
  end
  begin
     id 18 
     name lhumerus
     direction 1 -4.48968e-011 7.8138e-029   
     length 5.06035   
     axis 180 -30 -90   XYZ
    dof rx ry rz
    limits (-60.0 90.0)
           (-90.0 90.0)
           (-90.0 90.0)
  end
  begin
     id 19
     name lradius
     direction 1 -4.48967e-011 9.02887e-028   
     length 3.1478   
     axis 180 -30 -90   XYZ
    dof rx
    limits (-10.0 170.0)
  end
  begin
     id 20
     name lwrist
     direction 1 -4.48961e-011 7.20928e-028   
     length 1.5739   
     axis -5.52449e-016 90 90   XYZ
    dof ry
    limits (-180.0 0.0)
 end
  begin
     id 21 
     name lhand
     direction 1 -4.48972e-011 1.44186e-027   
     length 0.606747   
     axis -9.20027e-016 90 90   XYZ
    dof rx rz
    limits (-90.0 90.0)
           (-45.0 45.0)
  end
  begin
     id 22 
     name lfingers
     direction 1 -4.48943e-011 2.88371e-027   
     length 0.489175   
     axis -1.84005e-015 90 90   XYZ
    dof rx
    limits (0.0 90.0)
  end
  begin
     id 23
     name lthumb
     direction 0.707107 -6.34917e-011 0.707107   
     length 0.70236   
     axis -90 45 2.85299e-015   XYZ
    dof rx rz
    limits (-45.0 45.0)
           (-45.0 45.0)
  end
  begin
     id 24 
     name rclavicle
     direction -0.978165 0.207816 0.0022268   
     length 3.35425  
     axis 0 0 0   XYZ 
    dof ry rz
    limits (-10.0 20.0)
           (-20.0 0.0)
  end
  begin
     id 25 
     name rhumerus
     direction -1 -4.48964e-011 -4.02159e-027  
     length 5.12273   
     axis 180 30 90   XYZ
    dof rx ry rz
    limits (-90.0 60.0)
           (-90.0 90.0)
           (-90.0 90.0)
  end
  begin
     id 26 
     name rradius
     direction -1 -4.48966e-011 1.62746e-027   
     length 3.422   
     axis 180 30 90   XYZ
    dof rx
    limits (-10.0 170.0)
  end
  begin
     id 27 
     name rwrist
     direction -1 -4.4896e-011 7.20928e-028   
     length 1.711   
     axis -5.52449e-016 -90 -90   XYZ
    dof ry
    limits (-180.0 0.0)
  end
  begin
     id 28
     name rhand
     direction -1 -4.48979e-011 1.44186e-027   
     length 0.704599   
     axis -9.20027e-016 -90 -90   XYZ
    dof rx rz
    limits (-90.0 90.0)
           (-45.0 45.0)
  end
  begin
     id 29
     name rfingers
     direction -1 -4.48962e-011 2.88371e-027   
     length 0.568066   
     axis -1.84005e-015 -90 -90   XYZ
    dof rx
    limits (0.0 90.0)
  end
  begin
     id 30
     name rthumb
     direction -0.707107 -6.34949e-011 0.707107   
     length 0.815633   
     axis -90 -45 -2.85299e-015   XYZ
    dof rx rz
    limits (-45.0 45.0)
           (-45.0 45.0)
  end
:hierarchy
  begin
    root lhipjoint rhipjoint lowerback
    lhipjoint lfemur
    lfemur ltibia
    ltibia lfoot
    lfoot ltoes
    rhipjoint rfemur
    rfemur rtibia
    rtibia rfoot
    rfoot rtoes
    lowerback upperback
    upperback thorax
    thorax lowerneck lclavicle rclavicle
    lowerneck upperneck
    upperneck head
    lclavicle lhumerus
    lhumerus lradius
    lradius lwrist
    lwrist lhand lthumb
    lhand lfingers
    rclavicle rhumerus
    rhumerus rradius
    rradius rwrist
    rwrist rhand rthumb
    rhand rfingers
  end

#!OML:ASF E:\id_vita\Project 1\Capture day 1\Session 1\Male1.ASF
:FULLY-SPECIFIED
:DEGREES
283
root -5.84744 27.3394 -1.10641 5.06871 79.742 -1.87893
lowerback -1.72414 -2.08164 -4.82484
upperback 0.930937 -2.62005 -0.931851
thorax 2.09861 -1.35998 1.64582
lowerneck -0.489422 4.72784 9.97979
upperneck 10.6782 6.11484 0.123301
head 3.95583 3.48569 -1.47284
rclavicle -2.5842e-015 1.43125e-014
rhumerus -37.2318 -13.4451 -80.6357
rradius 20.9441
rwrist 5.45241
rhand -19.1607 43.5028
rfingers 7.12502
rthumb 7.15004 13.6436
lclavicle -2.5842e-015 1.43125e-014
lhumerus -19.0971 0.771421 83.7796
lradius 21.1051
lwrist -0.763796
lhand -13.1474 44.1524
lfingers 7.12502
lthumb 12.9511 73.7305
rfemur -33.836 6.93636 16.1873
rtibia 26.4963
rfoot -12.6288 -1.93826
rtoes 11.3232
lfemur 4.47078 4.4553 -22.9194
ltibia 8.81238
lfoot -21.653 8.57698
ltoes 1.93369
284
root -5.79067 27.3402 -1.09842 5.63071 79.9686 -1.42002
lowerback -2.16193 -2.07612 -4.8081
upperback 1.50542 -2.56502 -0.917255
thorax 2.93498 -1.35664 1.62263
lowerneck -1.65948 4.74666 10.2405
upperneck 10.5916 6.01025 -0.269865
head 4.17827 3.41788 -1.63353
rclavicle 1.61016e-014 2.54444e-014
rhumerus -36.1872 -13.5316 -80.9224
rradius 20.9122
rwrist 5.13253
rhand -18.8546 43.4597
rfingers 7.12502
rthumb 7.44546 13.6108
lclavicle 1.61016e-014 2.54444e-014
lhumerus -17.9341 0.762573 83.9222
lradius 21.0273
lwrist -0.919219
lhand -13.0843 43.634
lfingers 7.12502
lthumb 13.0119 73.2082
rfemur -33.8172 7.30421 15.8878
rtibia 25.9645
rfoot -12.6644 -2.06271
rtoes 13.6753
lfemur 4.87711 4.32814 -22.976
ltibia 8.21855
lfoot -21.4826 8.46739
ltoes 1.68872
285
root -5.71971 27.3364 -1.09242 5.53871 79.8551 -1.53362
lowerback -2.12261 -1.98366 -4.64679
upperback 1.40459 -2.45476 -0.898677
thorax 2.79467 -1.29524 1.56182
lowerneck -1.26971 4.65416 10.4235
upperneck 10.356 5.94559 -0.474993
head 4.03075 3.37781 -1.75059
rclavicle -3.94588e-014 -6.36111e-015
rhumerus -36.5973 -13.4358 -80.8403
rradius 21.0935
rwrist 4.89125
rhand -18.6095 43.4649
rfingers 7.12502
rthumb 7.68209 13.6245
lclavicle -3.94588e-014 -6.36111e-015
lhumerus -18.2689 0.546922 84.0076
lradius 21.1959
lwrist -0.871956
lhand -13.1798 43.3887
lfingers 7.12502
lthumb 12.9199 72.9688
rfemur -33.7938 7.58007 15.8468
rtibia 25.6083
rfoot -12.8109 -1.99184
rtoes 14.7061
lfemur 5.47721 4.55362 -22.9877
ltibia 7.57744
lfoot -21.4075 8.36799
ltoes 1.43434
286
root -5.67706 27.3313 -1.07423 5.86406 80.3979 -1.37941
lowerback -2.26574 -2.11697 -4.6676
upperback 1.53439 -2.61873 -0.884834
thorax 3.0217 -1.38325 1.57009
lowerneck -0.997423 4.63497 10.5592
upperneck 9.79205 5.95371 -0.54123
head 3.78591 3.36333 -1.80823
rclavicle 9.64106e-015 1.35174e-014
rhumerus -36.477 -13.3541 -81.0751
rradius 21.3285
rwrist 4.76665
rhand -18.6287 43.1902
rfingers 7.12502
rthumb 7.66357 13.3491
lclavicle 9.64106e-015 1.35174e-014
lhumerus -18.1232 0.143353 83.9836
lradius 21.3934
lwrist -0.614056
lhand -13.0756 43.6101
lfingers 7.12502
lthumb 13.0203 73.1837
rfemur -33.9848 7.64791 15.7576
rtibia 25.4155
rfoot -12.8215 -2.68658
rtoes 13.3348
lfemur 5.84148 4.10623 -22.8679
ltibia 6.78088
lfoot -20.9922 8.35094
ltoes 0.33462
287
root -5.61615 27.323 -1.06366 6.54283 80.4688 -0.806054
lowerback -2.08487 -2.14555 -4.64155
upperback 1.42555 -2.6728 -0.873398
thorax 2.80981 -1.40458 1.57445
lowerneck -0.854988 4.70314 10.4421
upperneck 9.50941 6.06899 -0.56653
head 3.66075 3.40405 -1.79634
rclavicle -5.1684e-015 -1.27222e-014
rhumerus -36.6687 -12.6564 -81.3855
rradius 21.6231
rwrist 4.38454
rhand -18.7243 42.9002
rfingers 7.12502
rthumb 7.57122 13.0558
lclavicle -5.1684e-015 -1.27222e-014
lhumerus -18.3138 -0.00570735 83.9982
lradius 21.4813
lwrist -0.324151
lhand -13.0649 43.7464
lfingers 7.12502
lthumb 13.0306 73.3194
rfemur -34.0139 7.56374 15.7097
rtibia 25.3089
rfoot -12.9481 -2.46767
rtoes 14.0999
lfemur 6.26455 4.1304 -22.9527
ltibia 6.18551
lfoot -20.6887 8.24985
ltoes -0.548338
288
root -5.56173 27.3171 -1.05296 7.53412 80.6717 0.0563963
lowerback -2.38881 -2.07058 -4.70153
upperback 1.59043 -2.54536 -0.903665
thorax 3.14525 -1.35002 1.56756
lowerneck -0.533954 4.59673 10.6592
upperneck 8.71305 5.97985 -0.84025
head 3.33609 3.32838 -1.94616
rclavicle -5.05907e-014 -1.59028e-014
rhumerus -36.4755 -12.8097 -81.4865
rradius 21.7468
rwrist 4.28765
rhand -18.36 43.1098
rfingers 7.12502
rthumb 7.92293 13.2782
lclavicle -5.05907e-014 -1.59028e-014
lhumerus -17.9815 -0.667779 84.1555
lradius 21.4529
lwrist 0.0557782
lhand -13.2398 44.0229
lfingers 7.12502
lthumb 12.862 73.6066
rfemur -34.0122 7.51904 15.5275
rtibia 25.2668
rfoot -12.9782 -2.26473
rtoes 15.8734
lfemur 6.47681 4.0152 -23.0644
ltibia 5.87729
lfoot -20.4906 8.1197
ltoes -1.09699
289
root -5.50388 27.3082 -1.04183 7.68624 80.7927 0.188796
lowerback -1.77982 -1.96478 -4.39451
upperback 1.43729 -2.45184 -1.0139
thorax 2.61865 -1.28478 1.3151
lowerneck -1.07375 4.54445 10.7981
upperneck 8.82367 5.83438 -0.829716
head 3.47428 3.26338 -1.96197
rclavicle -3.98563e-014 1.59028e-015
rhumerus -36.6813 -13.2278 -81.4808
rradius 21.8359
rwrist 4.71425
rhand -18.0133 43.3084
rfingers 7.12502
rthumb 8.25748 13.4898
lclavicle -3.98563e-014 1.59028e-015
lhumerus -18.2102 -1.27714 84.1489
lradius 21.6971
lwrist 0.340591
lhand -13.3154 44.6522
lfingers 7.12502
lthumb 12.7892 74.2405
rfemur -33.8665 7.53776 15.5106
rtibia 25.2825
rfoot -12.9377 -2.11485
rtoes 16.6252
lfemur 6.67253 4.00007 -23.0324
ltibia 5.914
lfoot -20.5796 7.92059
ltoes -1.25429
290
root -5.43162 27.2934 -1.03124 7.44038 80.6434 0.0396937
lowerback -1.8217 -1.88261 -4.34564
upperback 1.40935 -2.34696 -0.89672
thorax 2.61021 -1.23311 1.41226
lowerneck -0.204449 4.46918 10.6373
upperneck 8.3141 5.86202 -0.98218
head 3.13223 3.25107 -2.00525
rclavicle -3.83654e-014 1.59028e-014
rhumerus -36.9262 -12.8824 -81.3983
rradius 22.0062
rwrist 4.74499
rhand -18.4483 43.1067
rfingers 7.12502
rthumb 7.8377 13.272
lclavicle -3.83654e-014 1.59028e-014
lhumerus -18.6384 -1.14815 84.298
lradius 21.8706
lwrist 0.287267
lhand -13.4764 44.6858
lfingers 7.12502
lthumb 12.634 74.2837
rfemur -33.5687 7.46457 15.6837
rtibia 25.3461
rfoot -12.8827 -1.76588
rtoes 16.1731
lfemur 6.98549 4.26527 -22.9902
ltibia 6.12138
lfoot -20.8153 7.71174
ltoes -2.00488
291
root -5.39202 27.2856 -1.0076 8.23585 81.4439 0.477446
lowerback -1.95456 -2.17832 -4.57047
upperback 1.48016 -2.73203 -0.654436
thorax 2.80383 -1.43676 1.7607
lowerneck -0.218884 4.5065 10.4862
upperneck 7.84358 5.92249 -1.16077
head 2.97726 3.25176 -2.03975
rclavicle 4.04527e-014 2.3059e-014
rhumerus -36.4311 -12.3091 -81.5596
rradius 22.1038
rwrist 4.44288
rhand -17.2332 42.3751
rfingers 7.12502
rthumb 9.01035 12.5875
lclavicle 4.04527e-014 2.3059e-014
lhumerus -18.4101 -0.798164 84.3818
lradius 21.8493
lwrist 0.262458
lhand -13.554 44.5955
lfingers 7.12502
lthumb 12.5591 74.198
rfemur -33.733 7.40159 15.5201
rtibia 25.443
rfoot -12.5783 -2.24448
rtoes 15.5465
lfemur 6.51581 3.5469 -22.8368
ltibia 6.49757
lfoot -20.7555 7.46835
ltoes -3.32319
292
root -5.32207 27.2749 -0.992693 7.86911 81.5027 0.0649365
lowerback -1.52956 -1.92977 -4.20084
upperback 1.39322 -2.4334 -0.798183
thorax 2.43192 -1.27191 1.43981
lowerneck -0.884176 4.315 10.9953
upperneck 7.97988 5.5759 -1.29057
head 3.15461 3.094 -2.17573
rclavicle -7.14631e-014 -3.18055e-014
rhumerus -36.6223 -12.7232 -81.6604
rradius 22.3196
rwrist 4.31985
rhand -17.1399 42.4598
rfingers 7.12502
rthumb 9.10037 12.6761
lclavicle -7.14631e-014 -3.18055e-014
lhumerus -18.5062 -1.56784 84.3525
lradius 21.9392
lwrist 0.384092
lhand -13.4536 45.0533
lfingers 7.12502
lthumb 12.6559 74.6499
rfemur -33.5414 7.60649 15.54
rtibia 25.6285
rfoot -12.4896 -1.77473
rtoes 16.9082
lfemur 6.65879 3.6005 -22.6922
ltibia 6.71703
lfoot -20.8471 7.07489
ltoes -3.43562
